<svg width="625" height="160" viewBox="0 0 625 160" fill="none" xmlns="http://www.w3.org/2000/svg">
<rect width="625" height="160" rx="80" fill="#F6EFE1"/>
<rect x="75" y="14" width="10" height="132" rx="5" fill="#8D2438"/>
<rect x="44" y="60.1411" width="10" height="81.3474" rx="5" transform="rotate(-54.5 44 60.1411)" fill="#8D2438"/>
<rect width="10" height="81.3474" rx="5" transform="matrix(0.580703 0.814116 0.814116 -0.580703 44 99.2386)" fill="#8D2438"/>
<path d="M241.9 104.8C242.9 110.1 249.5 109 249.5 112.9C249.5 114.3 248.2 115.3 246.1 115.3C244.2 115.3 241.3 115 236.5 115C231.9 115 228.4 115.3 225.5 115.3C223.2 115.3 221.9 114.5 221.9 112.8C221.9 109.2 228.5 110.2 228.5 106.3C228.5 105.2 228.3 104.1 228 102.7L221.8 65.9L204.4 106.8C203.5 108.8 202 109.5 200.4 109.5C198.6 109.5 197.3 108.8 196.4 106.8L176.3 65.3L170.4 102.7C170.2 104.1 170 105.2 170 106.3C170 110.2 176.5 109.2 176.5 112.8C176.5 114.5 175.2 115.3 173 115.3C170.5 115.3 167.7 115 164.7 115C161.8 115 159.3 115.3 157.2 115.3C155.3 115.3 154 114.4 154 112.8C154 109.1 160.9 110.1 161.8 104.7L169.3 60.1C169.8 57.7 169.8 55.5 169.8 54.3C169.8 48.7 164 50 164 46.1C164 44.9 164.9 43.7 167.6 43.7C169.7 43.7 173.6 44 177.6 44C181.8 44 184.7 43.7 187.2 43.7C189.3 43.7 190.4 44.8 190.4 46.2C190.4 49.8 185.3 49 185.3 53.1C185.3 54.8 186.6 57.5 188.3 61.1L203 92.1L216 61.1C217.5 57.7 218.4 55.1 218.4 53.3C218.4 48.6 212.9 50 212.9 46.2C212.9 44.8 214.1 43.7 216.1 43.7C218.6 43.7 221.8 44 226.3 44C230.2 44 233.2 43.7 235.6 43.7C237.7 43.7 238.7 44.9 238.7 46.1C238.7 49.9 233.1 48.7 233.1 53.3C233.1 54.8 233.5 56.9 234.1 60.1L241.9 104.8ZM294.596 101.3C295.996 101.3 296.896 102.6 296.896 103.8C296.896 104.5 296.596 105.3 295.896 106.3C292.396 111.5 283.496 116.9 273.096 116.9C258.496 116.9 246.996 107 246.996 90.5C246.996 74.3 259.196 63.5 273.196 63.5C286.396 63.5 294.896 73.3 294.896 83.1C294.896 85.6 294.096 86.2 292.396 86.7L261.296 96.1C264.296 103.3 270.396 108.6 278.196 108.6C283.596 108.6 288.196 106.3 291.696 103C292.996 101.8 293.696 101.3 294.596 101.3ZM271.496 70.2C264.496 70.2 259.296 76.3 259.296 85.9C259.296 87.4 259.396 88.8 259.596 90.2L279.896 83.8C281.596 83.3 282.196 82.7 282.196 80.9C282.196 76.1 277.796 70.2 271.496 70.2ZM333.277 64.3C338.077 64.3 341.377 66.9 341.377 69.9C341.377 72.1 340.477 75.2 338.777 79.9C338.177 81.8 337.277 82.9 335.677 82.9C334.177 82.9 333.477 81.6 332.677 80C331.177 76.7 329.677 74.9 327.277 74.9C322.977 74.9 315.777 81.4 315.777 94.5V103.8C315.777 111.5 323.177 108.7 323.177 112.9C323.177 114 322.377 115.3 320.377 115.3C317.877 115.3 314.577 115 309.777 115C305.477 115 302.777 115.3 300.477 115.3C298.477 115.3 297.677 114.1 297.677 112.9C297.677 109 303.777 111.5 303.777 103.8V81C303.777 74.7 296.877 77.8 296.877 73.6C296.877 71.8 298.977 70.5 305.177 67.7C310.977 65 312.177 64.7 313.077 64.7C315.077 64.7 315.777 66.3 315.777 68.8V77.9C318.977 70 326.077 64.3 333.277 64.3ZM349.721 55.8C346.121 55.8 343.321 53.6 343.321 50.1C343.321 45.7 347.921 40.9 353.921 40.9C357.521 40.9 360.521 43.2 360.521 46.8C360.521 51.2 355.621 55.8 349.721 55.8ZM343.621 115.3C341.621 115.3 340.821 114.1 340.821 112.9C340.821 109 346.921 111.5 346.921 103.8V81C346.921 74.7 340.021 77.8 340.021 73.6C340.021 71.8 342.121 70.5 348.321 67.7C354.121 65 355.321 64.7 356.221 64.7C358.221 64.7 358.921 66.3 358.921 68.8V103.8C358.921 111.5 365.121 109 365.121 112.9C365.121 114 364.221 115.3 362.321 115.3C360.021 115.3 357.221 115 352.921 115C348.621 115 345.921 115.3 343.621 115.3ZM418.492 100.4C418.492 106.6 425.592 104.5 425.592 108.5C425.592 110.6 423.492 111.7 416.892 113.9C411.292 115.9 409.892 116.2 409.092 116.2C406.592 116.2 406.492 113.6 406.492 112V106.8C402.792 112.3 396.692 116.4 388.292 116.4C375.992 116.4 365.592 107 365.592 91C365.592 75.2 376.792 64 391.392 64C397.892 64 402.892 66.1 406.492 69.4V55.1C406.492 48.9 398.592 52.2 398.592 47.7C398.592 45.9 400.792 44.7 407.492 41.8C413.192 39.4 414.992 39 415.892 39C417.992 39 418.492 41 418.492 43.2V100.4ZM393.492 107.8C399.992 107.8 406.492 102.6 406.492 93.2V88.2C406.492 77.5 398.992 70.3 391.592 70.3C383.392 70.3 378.292 77.3 378.292 87.4C378.292 100.1 385.892 107.8 393.492 107.8ZM434.936 55.8C431.336 55.8 428.536 53.6 428.536 50.1C428.536 45.7 433.136 40.9 439.136 40.9C442.736 40.9 445.736 43.2 445.736 46.8C445.736 51.2 440.836 55.8 434.936 55.8ZM428.836 115.3C426.836 115.3 426.036 114.1 426.036 112.9C426.036 109 432.136 111.5 432.136 103.8V81C432.136 74.7 425.236 77.8 425.236 73.6C425.236 71.8 427.336 70.5 433.536 67.7C439.336 65 440.536 64.7 441.436 64.7C443.436 64.7 444.136 66.3 444.136 68.8V103.8C444.136 111.5 450.336 109 450.336 112.9C450.336 114 449.436 115.3 447.536 115.3C445.236 115.3 442.436 115 438.136 115C433.836 115 431.136 115.3 428.836 115.3ZM504.807 107.8C505.907 108 506.507 108.6 506.507 109.6C506.507 111.9 502.307 115.8 496.007 115.8C491.707 115.8 487.907 113.4 486.007 108.6C482.207 112.7 475.707 116.1 467.707 116.1C457.007 116.1 450.207 109.9 450.207 101C450.207 92.1 457.807 85 470.907 85C475.407 85 479.207 85.7 482.607 86.7L482.407 85.5C481.007 75.7 477.107 72.4 470.907 72.4C466.507 72.4 462.607 74.5 459.307 77.2C458.007 78 457.007 78.5 456.107 78.5C455.007 78.5 453.807 77.6 453.807 76.1C453.807 74.7 455.007 73.3 456.207 72C459.807 67.7 466.907 64.2 474.907 64.2C487.607 64.2 492.407 71.8 493.907 82.2L496.207 98.8C497.207 105.9 499.507 106.8 504.807 107.8ZM472.407 108.8C477.407 108.8 482.207 105.9 484.707 102.7L483.407 92.6C480.507 91.5 477.507 91 474.307 91C467.007 91 462.807 94.2 462.807 99.8C462.807 105.2 466.707 108.8 472.407 108.8ZM557.124 102.7C558.324 111.9 564.024 108.9 564.024 112.9C564.024 114.4 562.724 115.3 560.924 115.3C558.324 115.3 556.224 115 551.624 115C546.824 115 544.924 115.3 542.224 115.3C540.024 115.3 538.924 114.2 538.924 112.8C538.924 109.2 545.224 111.1 545.224 105.3C545.224 104.4 545.024 103 544.824 101.5L542.724 86.6C541.824 80.6 539.724 73.8 533.024 73.8C527.824 73.8 522.124 77.9 522.124 88V103.8C522.124 111.5 528.324 109 528.324 112.9C528.324 114 527.424 115.3 525.524 115.3C523.224 115.3 520.424 115 516.124 115C511.824 115 509.124 115.3 506.824 115.3C504.824 115.3 504.024 114.1 504.024 112.9C504.024 109 510.124 111.5 510.124 103.8V81C510.124 74.7 503.224 77.8 503.224 73.6C503.224 71.8 505.324 70.5 511.524 67.7C517.324 65 518.524 64.7 519.424 64.7C521.424 64.7 522.124 66.3 522.124 68.8V74.1C525.324 68.9 530.724 64.3 538.424 64.3C549.524 64.3 553.324 74.6 554.524 84L557.124 102.7Z" fill="#34051C"/>
<rect width="10" height="59" rx="5" transform="matrix(0 -1 -1 0 109 85)" fill="#8D2438"/>
</svg>
